<mxfile host="Electron" modified="2024-04-27T10:14:45.891Z" agent="Mozilla/5.0 (Macintosh; Intel Mac OS X 10_15_7) AppleWebKit/537.36 (KHTML, like Gecko) draw.io/24.2.5 Chrome/120.0.6099.109 Electron/28.1.0 Safari/537.36" etag="YrM7YWc1j_9v_kYcp8us" version="24.2.5" type="device">
  <diagram name="Страница — 1" id="0BmRW5xpMnafi9pSrdfQ">
    <mxGraphModel dx="1530" dy="800" grid="1" gridSize="10" guides="1" tooltips="1" connect="1" arrows="1" fold="1" page="1" pageScale="1" pageWidth="827" pageHeight="1169" math="0" shadow="0">
      <root>
        <mxCell id="0" />
        <mxCell id="1" parent="0" />
        <mxCell id="-3GT2P_HzhQ8ttdtiOca-1" value="Н_СЕССИЯ" style="rounded=0;whiteSpace=wrap;html=1;" parent="1" vertex="1">
          <mxGeometry x="60" y="80" width="120" height="60" as="geometry" />
        </mxCell>
        <mxCell id="-3GT2P_HzhQ8ttdtiOca-2" value="Н_ЛЮДИ" style="rounded=0;whiteSpace=wrap;html=1;" parent="1" vertex="1">
          <mxGeometry x="600" y="80" width="120" height="60" as="geometry" />
        </mxCell>
        <mxCell id="-3GT2P_HzhQ8ttdtiOca-3" value="Н_ВЕДОМОСТИ" style="rounded=0;whiteSpace=wrap;html=1;" parent="1" vertex="1">
          <mxGeometry x="310" y="80" width="120" height="60" as="geometry" />
        </mxCell>
        <mxCell id="-3GT2P_HzhQ8ttdtiOca-4" value="&lt;div style=&quot;background-color:#1e1f22;color:#bcbec4&quot;&gt;&lt;pre style=&quot;font-family:&#39;JetBrains Mono&#39;,monospace;font-size:9,8pt;&quot;&gt;&lt;span style=&quot;color: rgba(255, 255, 255, 0.85); font-family: &amp;quot;Helvetica Neue&amp;quot;; text-align: start; white-space: normal;&quot;&gt;&lt;font style=&quot;font-size: 24px;&quot;&gt;σ&lt;/font&gt;&lt;/span&gt;Н_ЛЮДИ.ОТЧЕСТВО &amp;lt; &lt;span style=&quot;color:#6aab73;&quot;&gt;Георгиевич&lt;/span&gt;&lt;/pre&gt;&lt;/div&gt;" style="rounded=0;whiteSpace=wrap;html=1;" parent="1" vertex="1">
          <mxGeometry x="550" y="210" width="220" height="60" as="geometry" />
        </mxCell>
        <mxCell id="-3GT2P_HzhQ8ttdtiOca-5" value="" style="endArrow=classic;html=1;rounded=0;exitX=0.5;exitY=1;exitDx=0;exitDy=0;entryX=0.5;entryY=0;entryDx=0;entryDy=0;" parent="1" source="-3GT2P_HzhQ8ttdtiOca-2" target="-3GT2P_HzhQ8ttdtiOca-4" edge="1">
          <mxGeometry width="50" height="50" relative="1" as="geometry">
            <mxPoint x="390" y="360" as="sourcePoint" />
            <mxPoint x="440" y="310" as="targetPoint" />
          </mxGeometry>
        </mxCell>
        <mxCell id="-3GT2P_HzhQ8ttdtiOca-6" value="&lt;div style=&quot;background-color:#1e1f22;color:#bcbec4&quot;&gt;&lt;pre style=&quot;font-family:&#39;JetBrains Mono&#39;,monospace;font-size:9,8pt;&quot;&gt;&lt;span style=&quot;color: rgba(255, 255, 255, 0.85); font-family: &amp;quot;Helvetica Neue&amp;quot;; text-align: start; white-space: normal;&quot;&gt;&lt;font style=&quot;font-size: 24px;&quot;&gt;σ&lt;/font&gt;&lt;/span&gt;Н_ВЕДОМОСТИ.ИД = &lt;span style=&quot;color:#6aab73;&quot;&gt;1457443&lt;/span&gt;&lt;/pre&gt;&lt;/div&gt;" style="rounded=0;whiteSpace=wrap;html=1;" parent="1" vertex="1">
          <mxGeometry x="275" y="210" width="190" height="60" as="geometry" />
        </mxCell>
        <mxCell id="-3GT2P_HzhQ8ttdtiOca-7" value="" style="endArrow=classic;html=1;rounded=0;exitX=0.5;exitY=1;exitDx=0;exitDy=0;entryX=0.5;entryY=0;entryDx=0;entryDy=0;" parent="1" source="-3GT2P_HzhQ8ttdtiOca-3" target="-3GT2P_HzhQ8ttdtiOca-6" edge="1">
          <mxGeometry width="50" height="50" relative="1" as="geometry">
            <mxPoint x="390" y="360" as="sourcePoint" />
            <mxPoint x="440" y="310" as="targetPoint" />
          </mxGeometry>
        </mxCell>
        <mxCell id="-3GT2P_HzhQ8ttdtiOca-8" value="&lt;span style=&quot;color: rgba(255, 255, 255, 0.85); font-family: &amp;quot;Helvetica Neue&amp;quot;; text-align: start; background-color: initial;&quot;&gt;&lt;font style=&quot;font-size: 24px;&quot;&gt;π&lt;/font&gt;&lt;/span&gt;ЧЛВК_ИД" style="rounded=0;whiteSpace=wrap;html=1;" parent="1" vertex="1">
          <mxGeometry x="60" y="340" width="120" height="60" as="geometry" />
        </mxCell>
        <mxCell id="-3GT2P_HzhQ8ttdtiOca-9" value="&lt;span style=&quot;color: rgba(255, 255, 255, 0.85); font-family: &amp;quot;Helvetica Neue&amp;quot;; text-align: start; background-color: initial;&quot;&gt;&lt;font style=&quot;font-size: 24px;&quot;&gt;π&lt;/font&gt;&lt;/span&gt;ИД, ЧЛВК_ИД" style="rounded=0;whiteSpace=wrap;html=1;" parent="1" vertex="1">
          <mxGeometry x="310" y="340" width="120" height="60" as="geometry" />
        </mxCell>
        <mxCell id="-3GT2P_HzhQ8ttdtiOca-10" value="" style="endArrow=classic;html=1;rounded=0;exitX=0.5;exitY=1;exitDx=0;exitDy=0;entryX=0.5;entryY=0;entryDx=0;entryDy=0;" parent="1" source="-3GT2P_HzhQ8ttdtiOca-1" target="-3GT2P_HzhQ8ttdtiOca-8" edge="1">
          <mxGeometry width="50" height="50" relative="1" as="geometry">
            <mxPoint x="390" y="360" as="sourcePoint" />
            <mxPoint x="440" y="310" as="targetPoint" />
          </mxGeometry>
        </mxCell>
        <mxCell id="-3GT2P_HzhQ8ttdtiOca-11" value="" style="endArrow=classic;html=1;rounded=0;exitX=0.5;exitY=1;exitDx=0;exitDy=0;entryX=0.5;entryY=0;entryDx=0;entryDy=0;" parent="1" source="-3GT2P_HzhQ8ttdtiOca-6" target="-3GT2P_HzhQ8ttdtiOca-9" edge="1">
          <mxGeometry width="50" height="50" relative="1" as="geometry">
            <mxPoint x="390" y="360" as="sourcePoint" />
            <mxPoint x="440" y="310" as="targetPoint" />
          </mxGeometry>
        </mxCell>
        <mxCell id="-3GT2P_HzhQ8ttdtiOca-12" value="&lt;span style=&quot;color: rgba(255, 255, 255, 0.85); font-family: &amp;quot;Helvetica Neue&amp;quot;; text-align: start; background-color: initial;&quot;&gt;&lt;font style=&quot;font-size: 24px;&quot;&gt;π&lt;/font&gt;&lt;/span&gt;ИД, ФАМИЛИЯ" style="rounded=0;whiteSpace=wrap;html=1;" parent="1" vertex="1">
          <mxGeometry x="600" y="340" width="120" height="60" as="geometry" />
        </mxCell>
        <mxCell id="-3GT2P_HzhQ8ttdtiOca-13" value="" style="endArrow=classic;html=1;rounded=0;exitX=0.5;exitY=1;exitDx=0;exitDy=0;entryX=0.5;entryY=0;entryDx=0;entryDy=0;" parent="1" source="-3GT2P_HzhQ8ttdtiOca-4" target="-3GT2P_HzhQ8ttdtiOca-12" edge="1">
          <mxGeometry width="50" height="50" relative="1" as="geometry">
            <mxPoint x="390" y="360" as="sourcePoint" />
            <mxPoint x="440" y="310" as="targetPoint" />
          </mxGeometry>
        </mxCell>
        <mxCell id="-3GT2P_HzhQ8ttdtiOca-14" value="&lt;span style=&quot;color: rgba(255, 255, 255, 0.85); font-family: &amp;quot;Helvetica Neue&amp;quot;; text-align: start; background-color: initial;&quot;&gt;&lt;font style=&quot;font-size: 24px;&quot;&gt;⋈&lt;/font&gt;&lt;/span&gt;Н_ЛЮДИ.ИД = Н_ВЕДОМОСТИ.ЧЛВК_ИД" style="rounded=0;whiteSpace=wrap;html=1;" parent="1" vertex="1">
          <mxGeometry x="414" y="490" width="286" height="60" as="geometry" />
        </mxCell>
        <mxCell id="-3GT2P_HzhQ8ttdtiOca-15" value="" style="endArrow=classic;html=1;rounded=0;exitX=0.5;exitY=1;exitDx=0;exitDy=0;entryX=0.25;entryY=0;entryDx=0;entryDy=0;" parent="1" source="-3GT2P_HzhQ8ttdtiOca-9" target="-3GT2P_HzhQ8ttdtiOca-14" edge="1">
          <mxGeometry width="50" height="50" relative="1" as="geometry">
            <mxPoint x="390" y="500" as="sourcePoint" />
            <mxPoint x="440" y="450" as="targetPoint" />
          </mxGeometry>
        </mxCell>
        <mxCell id="-3GT2P_HzhQ8ttdtiOca-16" value="" style="endArrow=classic;html=1;rounded=0;exitX=0.5;exitY=1;exitDx=0;exitDy=0;entryX=0.75;entryY=0;entryDx=0;entryDy=0;" parent="1" source="-3GT2P_HzhQ8ttdtiOca-12" target="-3GT2P_HzhQ8ttdtiOca-14" edge="1">
          <mxGeometry width="50" height="50" relative="1" as="geometry">
            <mxPoint x="390" y="500" as="sourcePoint" />
            <mxPoint x="440" y="450" as="targetPoint" />
          </mxGeometry>
        </mxCell>
        <mxCell id="-3GT2P_HzhQ8ttdtiOca-17" value="&lt;span style=&quot;color: rgba(255, 255, 255, 0.85); font-family: &amp;quot;Helvetica Neue&amp;quot;; text-align: start; background-color: initial;&quot;&gt;&lt;font style=&quot;font-size: 24px;&quot;&gt;⋈&lt;/font&gt;&lt;/span&gt;Н_ЛЮДИ.ИД = Н_СЕССИЯ.ЧЛВК_ИД" style="rounded=0;whiteSpace=wrap;html=1;" parent="1" vertex="1">
          <mxGeometry x="180" y="620" width="260" height="60" as="geometry" />
        </mxCell>
        <mxCell id="-3GT2P_HzhQ8ttdtiOca-18" value="" style="endArrow=classic;html=1;rounded=0;exitX=0.5;exitY=1;exitDx=0;exitDy=0;entryX=0.25;entryY=0;entryDx=0;entryDy=0;" parent="1" source="-3GT2P_HzhQ8ttdtiOca-8" target="-3GT2P_HzhQ8ttdtiOca-17" edge="1">
          <mxGeometry width="50" height="50" relative="1" as="geometry">
            <mxPoint x="390" y="500" as="sourcePoint" />
            <mxPoint x="440" y="450" as="targetPoint" />
          </mxGeometry>
        </mxCell>
        <mxCell id="-3GT2P_HzhQ8ttdtiOca-19" value="" style="endArrow=classic;html=1;rounded=0;exitX=0.5;exitY=1;exitDx=0;exitDy=0;entryX=0.75;entryY=0;entryDx=0;entryDy=0;" parent="1" source="-3GT2P_HzhQ8ttdtiOca-14" target="-3GT2P_HzhQ8ttdtiOca-17" edge="1">
          <mxGeometry width="50" height="50" relative="1" as="geometry">
            <mxPoint x="390" y="500" as="sourcePoint" />
            <mxPoint x="440" y="450" as="targetPoint" />
          </mxGeometry>
        </mxCell>
        <mxCell id="-3GT2P_HzhQ8ttdtiOca-20" value="&lt;div style=&quot;background-color:#1e1f22;color:#bcbec4&quot;&gt;&lt;pre style=&quot;font-family:&#39;JetBrains Mono&#39;,monospace;font-size:9,8pt;&quot;&gt;&lt;span style=&quot;color: rgba(255, 255, 255, 0.85); font-family: &amp;quot;Helvetica Neue&amp;quot;; text-align: start; white-space: normal;&quot;&gt;&lt;font style=&quot;font-size: 24px;&quot;&gt;π&lt;/font&gt;&lt;/span&gt;Н_ЛЮДИ.ФАМИЛИЯ, Н_ВЕДОМОСТИ.&lt;span style=&quot;color:#c77dbb;&quot;&gt;ИД&lt;/span&gt;, Н_СЕССИЯ.&lt;span style=&quot;color:#c77dbb;&quot;&gt;ЧЛВК_ИД&lt;/span&gt;&lt;/pre&gt;&lt;/div&gt;" style="rounded=0;whiteSpace=wrap;html=1;" parent="1" vertex="1">
          <mxGeometry x="125" y="780" width="370" height="60" as="geometry" />
        </mxCell>
        <mxCell id="-3GT2P_HzhQ8ttdtiOca-21" value="" style="endArrow=classic;html=1;rounded=0;exitX=0.5;exitY=1;exitDx=0;exitDy=0;entryX=0.5;entryY=0;entryDx=0;entryDy=0;" parent="1" source="-3GT2P_HzhQ8ttdtiOca-17" target="-3GT2P_HzhQ8ttdtiOca-20" edge="1">
          <mxGeometry width="50" height="50" relative="1" as="geometry">
            <mxPoint x="390" y="740" as="sourcePoint" />
            <mxPoint x="440" y="690" as="targetPoint" />
          </mxGeometry>
        </mxCell>
      </root>
    </mxGraphModel>
  </diagram>
</mxfile>
